<svg width="24" height="28" viewBox="0 0 24 28" fill="none" xmlns="http://www.w3.org/2000/svg">
<mask id="path-1-inside-1_2_72" fill="white">
<path d="M12 0C18.6274 0 24 4.84345 24 10.8182C24 14.618 22.0549 18.4604 18.803 22.2098C17.6489 23.5405 16.3937 24.7813 15.1078 25.9114C15.0019 26.0045 14.8977 26.0951 14.7954 26.1833L14.2054 26.6822L13.6667 27.1199L13.1857 27.4944L12.8919 27.7139C12.3763 28.0926 11.6374 28.0957 11.1181 27.7211L10.8109 27.4919L10.332 27.1189L9.79437 26.682L9.20459 26.1833L8.8922 25.9114C7.60631 24.7813 6.35113 23.5405 5.197 22.2098C1.94513 18.4604 0 14.618 0 10.8182C0 4.84345 5.37256 0 12 0ZM12 2.54545C6.93195 2.54545 2.82353 6.24926 2.82353 10.8182C2.82353 13.9442 4.52158 17.2986 7.42131 20.6419C8.49191 21.8763 9.66303 23.034 10.8632 24.0887L11.4317 24.579C11.619 24.7375 11.8066 24.8961 12 25.0485L12.5682 24.5791L13.1368 24.0887C14.337 23.034 15.5081 21.8763 16.5787 20.6419C19.4784 17.2986 21.1765 13.9442 21.1765 10.8182C21.1765 6.24926 17.068 2.54545 12 2.54545ZM12 5.72727C15.1188 5.72727 17.6471 8.00656 17.6471 10.8182C17.6471 13.6298 15.1188 15.9091 12 15.9091C8.88122 15.9091 6.35294 13.6298 6.35294 10.8182C6.35294 8.00656 8.88122 5.72727 12 5.72727ZM12 8.27273C10.4406 8.27273 9.17647 9.41237 9.17647 10.8182C9.17647 12.224 10.4406 13.3636 12 13.3636C13.5594 13.3636 14.8235 12.224 14.8235 10.8182C14.8235 9.41237 13.5594 8.27273 12 8.27273Z"/>
</mask>
<path d="M12 0C18.6274 0 24 4.84345 24 10.8182C24 14.618 22.0549 18.4604 18.803 22.2098C17.6489 23.5405 16.3937 24.7813 15.1078 25.9114C15.0019 26.0045 14.8977 26.0951 14.7954 26.1833L14.2054 26.6822L13.6667 27.1199L13.1857 27.4944L12.8919 27.7139C12.3763 28.0926 11.6374 28.0957 11.1181 27.7211L10.8109 27.4919L10.332 27.1189L9.79437 26.682L9.20459 26.1833L8.8922 25.9114C7.60631 24.7813 6.35113 23.5405 5.197 22.2098C1.94513 18.4604 0 14.618 0 10.8182C0 4.84345 5.37256 0 12 0ZM12 2.54545C6.93195 2.54545 2.82353 6.24926 2.82353 10.8182C2.82353 13.9442 4.52158 17.2986 7.42131 20.6419C8.49191 21.8763 9.66303 23.034 10.8632 24.0887L11.4317 24.579C11.619 24.7375 11.8066 24.8961 12 25.0485L12.5682 24.5791L13.1368 24.0887C14.337 23.034 15.5081 21.8763 16.5787 20.6419C19.4784 17.2986 21.1765 13.9442 21.1765 10.8182C21.1765 6.24926 17.068 2.54545 12 2.54545ZM12 5.72727C15.1188 5.72727 17.6471 8.00656 17.6471 10.8182C17.6471 13.6298 15.1188 15.9091 12 15.9091C8.88122 15.9091 6.35294 13.6298 6.35294 10.8182C6.35294 8.00656 8.88122 5.72727 12 5.72727ZM12 8.27273C10.4406 8.27273 9.17647 9.41237 9.17647 10.8182C9.17647 12.224 10.4406 13.3636 12 13.3636C13.5594 13.3636 14.8235 12.224 14.8235 10.8182C14.8235 9.41237 13.5594 8.27273 12 8.27273Z" fill="white"/>
<path d="M18.803 22.2098L15.7812 19.589L18.803 22.2098ZM15.1078 25.9114L17.7484 28.916V28.916L15.1078 25.9114ZM14.7954 26.1833L17.3782 29.2377L17.3927 29.2254L17.407 29.213L14.7954 26.1833ZM14.2054 26.6822L16.7277 29.7867L16.7582 29.762L16.7881 29.7366L14.2054 26.6822ZM13.6667 27.1199L16.124 30.2761L16.1568 30.2506L16.1891 30.2244L13.6667 27.1199ZM13.1857 27.4944L15.5795 30.699L15.6115 30.6751L15.643 30.6506L13.1857 27.4944ZM12.8919 27.7139L15.2601 30.9374L15.2729 30.928L15.2857 30.9185L12.8919 27.7139ZM11.1181 27.7211L8.72575 30.9268L8.75185 30.9463L8.77827 30.9654L11.1181 27.7211ZM10.8109 27.4919L8.35323 30.6478L8.38564 30.673L8.41856 30.6976L10.8109 27.4919ZM10.332 27.1189L7.80941 30.2232L7.84161 30.2494L7.87435 30.2749L10.332 27.1189ZM9.79437 26.682L7.21151 29.7364L7.2414 29.7616L7.27179 29.7863L9.79437 26.682ZM9.20459 26.1833L6.57834 29.2004L6.5999 29.2192L6.62173 29.2376L9.20459 26.1833ZM8.8922 25.9114L6.25165 28.916L6.25878 28.9222L6.26595 28.9285L8.8922 25.9114ZM5.197 22.2098L8.21879 19.589L5.197 22.2098ZM7.42131 20.6419L10.4431 18.0211L7.42131 20.6419ZM10.8632 24.0887L8.2226 27.0933L8.23662 27.1056L8.25075 27.1178L10.8632 24.0887ZM11.4317 24.579L8.8193 27.6081L8.8339 27.6207L8.84863 27.6332L11.4317 24.579ZM12 25.0485L9.52389 28.19L12.0591 30.1883L14.5477 28.1323L12 25.0485ZM12.5682 24.5791L15.1159 27.6628L15.1485 27.6358L15.1806 27.6082L12.5682 24.5791ZM13.1368 24.0887L15.7492 27.1178L15.7634 27.1056L15.7774 27.0933L13.1368 24.0887ZM16.5787 20.6419L13.5569 18.0211L16.5787 20.6419ZM12 4C16.8185 4 20 7.43261 20 10.8182H28C28 2.25428 20.4364 -4 12 -4V4ZM20 10.8182C20 13.2438 18.7375 16.1804 15.7812 19.589L21.8248 24.8307C25.3722 20.7405 28 15.9922 28 10.8182H20ZM15.7812 19.589C14.7592 20.7673 13.6345 21.881 12.4672 22.9068L17.7484 28.916C19.1529 27.6816 20.5385 26.3137 21.8248 24.8307L15.7812 19.589ZM12.4672 22.9068C12.3709 22.9915 12.2764 23.0738 12.1838 23.1536L17.407 29.213C17.519 29.1165 17.6328 29.0175 17.7484 28.916L12.4672 22.9068ZM12.2126 23.1289L11.6226 23.6279L16.7881 29.7366L17.3782 29.2377L12.2126 23.1289ZM11.683 23.5778L11.1444 24.0154L16.1891 30.2244L16.7277 29.7867L11.683 23.5778ZM11.2094 23.9636L10.7284 24.3382L15.643 30.6506L16.124 30.2761L11.2094 23.9636ZM10.7919 24.2898L10.498 24.5092L15.2857 30.9185L15.5795 30.699L10.7919 24.2898ZM10.5236 24.4903C11.4084 23.8402 12.5713 23.8374 13.4579 24.4768L8.77827 30.9654C10.7035 32.3539 13.3442 32.345 15.2601 30.9374L10.5236 24.4903ZM13.5104 24.5154L13.2032 24.2861L8.41856 30.6976L8.72575 30.9268L13.5104 24.5154ZM13.2685 24.3359L12.7897 23.963L7.87435 30.2749L8.35323 30.6478L13.2685 24.3359ZM12.8546 24.0147L12.317 23.5778L7.27179 29.7863L7.80941 30.2232L12.8546 24.0147ZM12.3772 23.6277L11.7874 23.129L6.62173 29.2376L7.21151 29.7364L12.3772 23.6277ZM11.8308 23.1662L11.5185 22.8943L6.26595 28.9285L6.57834 29.2004L11.8308 23.1662ZM11.5328 22.9068C10.3655 21.881 9.24076 20.7673 8.21879 19.589L2.1752 24.8307C3.4615 26.3137 4.84707 27.6816 6.25165 28.916L11.5328 22.9068ZM8.21879 19.589C5.26248 16.1804 4 13.2438 4 10.8182H-4C-4 15.9922 -1.37223 20.7405 2.1752 24.8307L8.21879 19.589ZM4 10.8182C4 7.43261 7.18148 4 12 4V-4C3.56364 -4 -4 2.25428 -4 10.8182H4ZM12 -1.45455C5.12303 -1.45455 -1.17647 3.6601 -1.17647 10.8182H6.82353C6.82353 8.83843 8.74087 6.54545 12 6.54545V-1.45455ZM-1.17647 10.8182C-1.17647 15.3503 1.2375 19.617 4.39952 23.2628L10.4431 18.0211C7.80567 14.9802 6.82353 12.538 6.82353 10.8182H-1.17647ZM4.39952 23.2628C5.60264 24.6499 6.90426 25.9347 8.2226 27.0933L13.5037 21.0841C12.4218 20.1333 11.3812 19.1027 10.4431 18.0211L4.39952 23.2628ZM8.25075 27.1178L8.8193 27.6081L14.0441 21.55L13.4756 21.0596L8.25075 27.1178ZM14.5477 28.1323L15.1159 27.6628L10.0205 21.4954L9.45232 21.9648L14.5477 28.1323ZM15.1806 27.6082L15.7492 27.1178L10.5245 21.0596L9.95584 21.55L15.1806 27.6082ZM15.7774 27.0933C17.0957 25.9347 18.3974 24.6499 19.6005 23.2628L13.5569 18.0211C12.6188 19.1027 11.5782 20.1333 10.4963 21.0841L15.7774 27.0933ZM19.6005 23.2628C22.7625 19.617 25.1765 15.3503 25.1765 10.8182H17.1765C17.1765 12.538 16.1943 14.9802 13.5569 18.0211L19.6005 23.2628ZM25.1765 10.8182C25.1765 3.6601 18.877 -1.45455 12 -1.45455V6.54545C15.2591 6.54545 17.1765 8.83843 17.1765 10.8182H25.1765ZM12 9.72727C12.5846 9.72727 13.0383 9.94013 13.3147 10.1893C13.5844 10.4325 13.6471 10.6599 13.6471 10.8182H21.6471C21.6471 5.41739 16.9277 1.72727 12 1.72727V9.72727ZM13.6471 10.8182C13.6471 10.9765 13.5844 11.2039 13.3147 11.4471C13.0383 11.6962 12.5846 11.9091 12 11.9091V19.9091C16.9277 19.9091 21.6471 16.219 21.6471 10.8182H13.6471ZM12 11.9091C11.4154 11.9091 10.9617 11.6962 10.6853 11.4471C10.4156 11.2039 10.3529 10.9765 10.3529 10.8182H2.35294C2.35294 16.219 7.0723 19.9091 12 19.9091V11.9091ZM10.3529 10.8182C10.3529 10.6599 10.4156 10.4325 10.6853 10.1893C10.9617 9.94013 11.4154 9.72727 12 9.72727V1.72727C7.0723 1.72727 2.35294 5.41739 2.35294 10.8182H10.3529ZM12 4.27273C8.63169 4.27273 5.17647 6.8232 5.17647 10.8182H13.1765C13.1765 11.3628 12.9231 11.7717 12.6818 11.9892C12.4472 12.2007 12.1951 12.2727 12 12.2727V4.27273ZM5.17647 10.8182C5.17647 14.8132 8.63169 17.3636 12 17.3636V9.36364C12.1951 9.36364 12.4472 9.43569 12.6818 9.64715C12.9231 9.86463 13.1765 10.2736 13.1765 10.8182H5.17647ZM12 17.3636C15.3683 17.3636 18.8235 14.8132 18.8235 10.8182H10.8235C10.8235 10.2736 11.0769 9.86463 11.3182 9.64715C11.5528 9.43569 11.8049 9.36364 12 9.36364V17.3636ZM18.8235 10.8182C18.8235 6.8232 15.3683 4.27273 12 4.27273V12.2727C11.8049 12.2727 11.5528 12.2007 11.3182 11.9892C11.0769 11.7717 10.8235 11.3628 10.8235 10.8182H18.8235ZM8.84863 27.6332C9.02732 27.7843 9.26728 27.9878 9.52389 28.19L14.4761 21.9071C14.3459 21.8045 14.2107 21.6906 14.0148 21.5249L8.84863 27.6332Z" fill="white" mask="url(#path-1-inside-1_2_72)"/>
</svg>
