<svg width="46" height="45" viewBox="0 0 46 45" fill="none" xmlns="http://www.w3.org/2000/svg">
<path fill-rule="evenodd" clip-rule="evenodd" d="M2.8938 20.6779C2.8938 10.3624 11.2308 2 21.515 2C31.7991 2 40.1362 10.3624 40.1362 20.6779C40.1362 25.1274 38.585 29.2136 35.9954 32.4219L43.1953 39.6437C43.9607 40.4115 43.9607 41.6563 43.1953 42.4241C42.4298 43.192 41.1887 43.192 40.4232 42.4241L33.2234 35.2024C30.0248 37.7998 25.951 39.3557 21.515 39.3557C11.2308 39.3557 2.8938 30.9933 2.8938 20.6779ZM21.515 5.93218C13.3959 5.93218 6.81405 12.5341 6.81405 20.6779C6.81405 28.8217 13.3959 35.4236 21.515 35.4236C29.634 35.4236 36.2159 28.8217 36.2159 20.6779C36.2159 12.5341 29.634 5.93218 21.515 5.93218Z" fill="black" fill-opacity="0.85" stroke="black" stroke-width="4" stroke-linecap="round" stroke-linejoin="round"/>
</svg>
